<svg width="24" height="24" viewBox="0 0 24 24" fill="none" xmlns="http://www.w3.org/2000/svg">
<g clip-path="url(#clip0_61_768)">
<path d="M23.9999 16.8807V14.4888L21.6058 14.2353C21.4565 13.6232 21.2147 13.0472 20.8961 12.5231L22.4101 10.6506L20.7187 8.95924L18.8462 10.4732C18.3221 10.1546 17.7462 9.91282 17.134 9.76348L16.8805 7.36938H14.4886L14.2351 9.76348C13.6229 9.91282 13.047 10.1546 12.5229 10.4732L10.6503 8.95924L8.959 10.6506L10.473 12.5231C10.1544 13.0472 9.91258 13.6231 9.76323 14.2353L7.36914 14.4888V16.8807L9.76323 17.1342C9.91258 17.7464 10.1544 18.3223 10.473 18.8464L8.959 20.719L10.6503 22.4103L12.5229 20.8963C13.047 21.2149 13.6229 21.4567 14.2351 21.6061L14.4886 24.0001H16.8805L17.134 21.606C17.7462 21.4567 18.3221 21.2149 18.8462 20.8963L20.7188 22.4103L22.4101 20.7189L20.8961 18.8464C21.2147 18.3223 21.4565 17.7464 21.6059 17.1342L23.9999 16.8807ZM15.6846 18.4868C14.137 18.4868 12.8825 17.2323 12.8825 15.6848C12.8825 14.1372 14.137 12.8827 15.6846 12.8827C17.2321 12.8827 18.4866 14.1372 18.4866 15.6848C18.4866 17.2323 17.2321 18.4868 15.6846 18.4868Z" fill="white"/>
<path d="M11.1083 5.3572C10.9917 4.87955 10.8031 4.4302 10.5545 4.02127L11.7358 2.56017L10.4161 1.24045L8.95497 2.42175C8.54608 2.17317 8.09669 1.9845 7.61903 1.86797L7.42127 0H5.55494L5.35713 1.86802C4.87947 1.98455 4.43013 2.17317 4.02119 2.4218L2.5601 1.2405L1.24038 2.56022L2.42167 4.02131C2.1731 4.4302 1.98442 4.87959 1.86789 5.35725L-0.00012207 5.55502V7.42134L1.86789 7.61916C1.98442 8.09681 2.17305 8.54616 2.42167 8.95509L1.24038 10.4162L2.5601 11.7359L4.02119 10.5546C4.43008 10.8032 4.87947 10.9919 5.35713 11.1084L5.55494 12.9764H7.42127L7.60769 11.2158L7.07003 10.5508L7.96469 9.65611L9.65603 7.96477L10.5506 7.07011L11.2157 7.60777L12.9763 7.42134V5.55502L11.1083 5.3572ZM6.48808 8.67455C5.28058 8.67455 4.30174 7.6957 4.30174 6.4882C4.30174 5.2807 5.28058 4.30186 6.48808 4.30186C7.69558 4.30186 8.67443 5.2807 8.67443 6.4882C8.67443 7.6957 7.69558 8.67455 6.48808 8.67455Z" fill="white"/>
</g>
<defs>
<clipPath id="clip0_61_768">
<rect width="24" height="24" fill="white"/>
</clipPath>
</defs>
</svg>
